<?xml version="1.0" standalone="no"?>
<svg version="1.0" xmlns="http://www.w3.org/2000/svg"
 width="64" height="82" viewBox="0 0 1488.000000 1907.000000"
 preserveAspectRatio="xMidYMid meet">

<g transform="translate(0.000000,1907.000000) scale(0.100000,-0.100000)"
fill="#000000" stroke="none">
<path d="M7206 19061 c-3 -5 12 -48 34 -95 83 -181 108 -276 73 -276 -37 0
-149 32 -206 57 l-60 27 -18 -23 c-14 -17 -19 -39 -19 -85 1 -78 17 -297 24
-303 2 -2 47 12 100 31 102 39 189 48 199 22 3 -8 1 -47 -4 -88 -31 -247 -43
-321 -61 -389 -19 -70 -23 -78 -51 -86 -57 -16 -80 -72 -63 -150 7 -29 5 -32
-28 -43 -76 -25 -103 -118 -51 -174 29 -31 30 -36 12 -36 -7 0 -25 -13 -40
-28 -21 -22 -27 -38 -27 -71 0 -53 12 -77 50 -96 l29 -15 -24 -24 c-28 -28
-40 -66 -31 -99 9 -37 44 -75 75 -82 27 -6 28 -8 23 -55 -4 -47 -3 -52 34 -87
22 -21 48 -43 59 -50 17 -10 14 -12 -28 -12 -42 -1 -49 -4 -57 -27 -6 -14 -10
-49 -10 -78 0 -46 -3 -55 -30 -74 -40 -30 -38 -59 6 -118 29 -37 34 -52 29
-73 -4 -14 -9 -54 -12 -88 -3 -42 -9 -63 -17 -63 -23 0 -46 -36 -46 -71 0 -47
28 -150 45 -169 19 -21 19 -44 -1 -82 -16 -32 -15 -50 7 -106 12 -28 12 -34
-1 -42 -8 -6 -21 -8 -28 -5 -7 3 -22 0 -33 -6 -17 -9 -19 -17 -13 -59 5 -41 3
-53 -15 -76 -11 -15 -21 -39 -21 -54 0 -26 -3 -29 -52 -34 -29 -4 -70 -9 -90
-12 -21 -3 -38 -4 -38 -1 0 2 -11 60 -25 128 -87 428 -272 940 -381 1055 -36
39 -62 42 -138 19 -62 -19 -127 -19 -190 0 -80 24 -111 18 -189 -38 -16 -12
-46 -19 -81 -20 -40 -2 -61 -8 -78 -24 -13 -11 -66 -33 -118 -48 -341 -99
-631 -217 -792 -321 -225 -145 -382 -282 -490 -427 -199 -268 -272 -528 -248
-882 32 -477 144 -761 618 -1565 101 -171 156 -278 176 -345 6 -20 3 -21 -242
-21 -268 1 -391 -12 -572 -60 -172 -45 -293 -97 -414 -178 -38 -26 -70 -45
-71 -44 -1 2 -10 50 -19 108 -31 180 -142 520 -170 520 -16 0 -224 -157 -316
-239 -262 -233 -449 -477 -541 -706 -80 -201 -119 -444 -119 -748 l0 -202 -33
-14 c-63 -27 -233 -125 -326 -188 -51 -34 -97 -63 -101 -63 -4 0 -23 26 -41
58 -50 90 -141 221 -227 328 -84 106 -239 274 -252 274 -21 0 -209 -321 -292
-498 -185 -395 -269 -739 -255 -1051 14 -320 109 -664 291 -1055 l46 -98 -78
-97 c-43 -53 -93 -117 -111 -143 l-33 -46 -112 95 c-122 105 -335 251 -493
337 -56 31 -104 56 -106 56 -3 0 -14 -35 -26 -77 -140 -521 -162 -1040 -60
-1438 83 -325 322 -704 678 -1077 l100 -105 -29 -74 c-15 -41 -38 -110 -51
-154 -12 -44 -25 -83 -28 -87 -4 -4 -63 13 -132 37 -202 70 -544 144 -666 145
l-33 0 6 -47 c57 -470 144 -799 294 -1108 96 -197 184 -321 339 -476 204 -204
403 -344 718 -507 152 -78 163 -85 167 -115 24 -146 49 -282 62 -332 45 -180
131 -397 208 -524 20 -32 36 -61 36 -64 0 -2 -28 -7 -62 -11 -219 -24 -559
-132 -821 -261 -127 -63 -297 -158 -297 -167 0 -4 66 -73 148 -155 389 -391
795 -663 1178 -789 200 -66 328 -85 594 -91 l225 -5 52 -72 c203 -282 451
-510 698 -640 l65 -35 -27 -17 c-104 -62 -262 -174 -343 -242 -111 -93 -309
-294 -399 -405 l-63 -78 124 -58 c461 -219 953 -337 1328 -317 238 13 511 85
773 207 72 33 139 63 148 66 18 5 21 -11 50 -205 14 -92 8 -88 104 -72 363 58
1125 92 2075 92 974 1 1684 -32 2126 -98 l41 -6 22 138 c12 77 24 144 26 150
2 6 48 -11 112 -41 212 -102 429 -175 633 -212 126 -23 432 -23 578 0 318 51
688 169 972 312 82 41 90 48 79 63 -198 260 -495 532 -736 674 -40 24 -73 45
-73 48 0 4 21 16 48 29 69 34 206 125 287 191 107 88 290 282 389 412 l89 118
171 0 c188 0 300 10 450 41 344 70 723 274 1111 598 101 84 405 383 405 398 0
25 -344 200 -547 279 -199 77 -502 154 -605 154 -15 0 -28 2 -28 4 0 2 19 35
42 72 114 187 211 479 254 770 l17 115 131 65 c495 247 826 530 1026 878 174
303 312 772 356 1209 l6 67 -35 0 c-116 0 -504 -87 -692 -155 -100 -36 -114
-36 -115 4 0 8 -21 77 -47 153 l-46 138 114 117 c139 144 282 320 384 473 95
143 212 376 254 506 107 335 117 739 30 1224 -19 107 -76 346 -86 362 -9 16
-256 -124 -413 -235 -94 -66 -155 -115 -244 -194 l-58 -52 -58 78 c-32 43 -83
108 -114 144 l-56 67 40 80 c107 214 212 514 263 755 29 142 31 162 31 370 1
234 -6 293 -61 495 -54 204 -163 469 -276 677 -96 174 -191 323 -207 323 -15
0 -207 -218 -300 -341 -48 -63 -115 -161 -149 -217 -35 -56 -65 -102 -68 -102
-2 0 -55 33 -116 74 -62 41 -163 101 -226 134 l-113 60 -3 213 c-2 213 -11
312 -41 464 -83 420 -341 777 -824 1139 -63 47 -117 82 -121 78 -13 -14 -80
-200 -109 -302 -17 -57 -40 -154 -52 -217 -14 -76 -24 -110 -32 -105 -6 4 -36
23 -66 43 -170 112 -381 183 -650 220 -56 8 -191 14 -327 14 -228 0 -233 0
-227 20 3 11 41 94 85 185 89 182 181 342 302 525 172 260 310 602 370 915 18
97 21 150 21 335 0 307 -32 471 -125 645 -136 252 -424 502 -806 697 -180 93
-535 245 -643 277 -47 13 -105 34 -130 45 -25 11 -55 21 -68 21 -12 0 -38 16
-57 35 -62 62 -157 69 -232 18 -36 -24 -40 -25 -83 -13 -91 26 -114 25 -154
-10 -94 -83 -197 -335 -371 -910 -48 -157 -90 -288 -94 -293 -4 -4 -31 -2 -60
5 -46 10 -55 17 -75 52 -13 23 -27 53 -30 69 -7 29 -16 32 -93 27 -24 -1 -43
1 -43 4 0 11 53 90 87 131 43 50 41 83 -5 107 -19 9 -36 18 -38 21 -3 3 11 26
30 51 37 49 56 100 56 153 0 32 -3 36 -49 71 l-23 18 28 51 29 51 -19 56 c-15
45 -17 61 -8 81 9 20 7 33 -10 72 l-21 47 22 38 c29 51 28 91 -5 117 -15 12
-33 21 -41 21 -11 0 -13 5 -7 18 5 9 9 43 9 74 0 54 2 58 29 70 55 22 81 95
53 148 -12 23 -11 27 15 50 41 35 49 100 19 141 -22 29 -22 32 -6 66 22 46 12
98 -25 133 -20 19 -26 31 -19 41 14 23 10 98 -7 124 -9 14 -33 30 -53 36 -35
10 -36 12 -36 59 0 54 -20 83 -71 105 -31 13 -31 13 -47 136 -27 202 -30 260
-18 320 20 94 20 94 141 48 133 -51 150 -55 161 -38 5 8 9 96 9 197 0 213 4
207 -101 173 -79 -25 -174 -42 -193 -35 -11 4 -8 27 16 117 16 62 40 139 53
171 13 33 22 63 19 68 -7 11 -481 10 -488 -1z m417 -61 c-1 -8 -18 -71 -38
-140 -23 -80 -35 -141 -33 -170 l3 -45 47 2 c26 0 90 13 142 28 52 15 99 24
105 21 6 -4 10 -60 10 -137 1 -143 -4 -152 -56 -126 -15 8 -72 25 -125 37
-110 25 -123 22 -134 -34 -7 -38 12 -340 27 -440 9 -55 8 -70 -3 -77 -19 -13
-21 -12 -40 20 -47 84 -200 43 -202 -54 -1 -31 -13 -44 -28 -30 -2 3 10 85 29
182 39 210 53 394 32 419 -16 20 -89 14 -198 -16 -123 -34 -115 -44 -107 127
3 81 7 148 9 149 1 1 49 -14 107 -33 117 -38 173 -45 195 -22 13 13 11 29 -20
142 -30 108 -48 161 -73 210 -2 4 76 6 175 5 151 -3 178 -5 176 -18z m-126
-1072 c30 -28 31 -83 1 -115 -31 -33 -90 -32 -117 3 -63 80 42 181 116 112z
m166 -59 c47 -21 60 -80 26 -123 -16 -20 -29 -26 -59 -26 -47 0 -78 24 -86 67
-5 27 -1 37 24 63 32 32 56 37 95 19z m-338 -59 c30 -30 26 -87 -9 -116 -37
-32 -71 -30 -107 5 -33 33 -37 65 -13 99 31 45 89 50 129 12z m192 -89 c108
-50 179 -255 153 -447 -13 -100 -30 -152 -71 -216 -39 -60 -83 -88 -140 -88
-205 0 -291 464 -128 690 28 39 94 80 129 80 8 0 34 -9 57 -19z m266 -21 c33
-26 41 -63 23 -99 -17 -33 -34 -41 -81 -41 -24 0 -39 7 -54 26 -61 77 35 175
112 114z m-567 -84 c54 -46 30 -127 -43 -142 -27 -5 -37 -1 -63 24 -39 39 -39
74 -1 113 36 35 70 37 107 5z m619 -108 c21 -25 25 -38 21 -62 -13 -65 -94
-89 -141 -41 -32 31 -32 66 1 104 36 43 82 43 119 -1z m-654 -107 c79 -79 -30
-189 -113 -114 -20 18 -24 73 -7 104 23 45 80 49 120 10z m650 -54 c27 -20 41
-56 34 -88 -18 -82 -145 -78 -161 7 -12 64 76 121 127 81z m-617 -148 c57 -45
21 -139 -55 -139 -71 0 -105 85 -54 135 30 31 73 32 109 4z m591 -44 c46 -45
26 -127 -34 -140 -52 -11 -100 27 -100 80 0 73 84 111 134 60z m-492 -136 c28
-34 22 -83 -14 -113 -35 -30 -49 -32 -88 -11 -50 25 -57 90 -15 132 21 21 32
24 62 19 20 -3 45 -15 55 -27z m414 -31 c54 -51 12 -145 -61 -136 -30 3 -35 1
-31 -13 7 -21 -11 -69 -33 -85 -28 -22 -80 -17 -107 11 -54 53 -12 141 63 133
37 -3 37 -3 34 29 -8 68 83 110 135 61z m-293 -109 c56 -44 21 -139 -53 -139
-47 0 -81 32 -81 79 0 71 76 106 134 60z m345 -72 c14 -18 -11 -107 -45 -156
-25 -37 -20 -51 19 -51 22 0 22 -22 -3 -70 -26 -50 -26 -50 10 -50 27 0 30 -3
30 -32 0 -18 -14 -60 -31 -92 l-32 -60 21 -15 c12 -9 32 -24 45 -33 22 -15 24
-21 17 -60 -12 -63 -28 -100 -56 -129 -36 -38 -30 -81 13 -93 l31 -10 -43 -80
c-24 -45 -46 -101 -50 -125 l-7 -44 38 8 c22 5 50 9 64 9 24 1 25 -1 24 -59
-1 -50 -9 -76 -46 -152 -37 -74 -47 -106 -53 -169 -7 -82 -22 -122 -67 -191
-16 -23 -28 -46 -28 -52 0 -22 20 -10 42 24 13 19 29 35 35 35 19 0 25 -41 14
-90 -6 -25 -11 -64 -11 -86 0 -42 0 -42 45 -48 67 -11 83 -29 100 -120 l15
-80 -54 -90 c-67 -111 -76 -134 -76 -195 0 -44 2 -48 35 -64 34 -16 35 -18 29
-64 -3 -27 -15 -84 -26 -128 -42 -166 -42 -167 -25 -238 10 -36 17 -81 17 -99
l0 -33 -51 0 -52 0 7 164 c4 90 10 177 13 192 5 27 3 29 -23 29 -16 0 -34 -4
-40 -8 -17 -10 -32 -125 -40 -299 -4 -84 -8 -153 -10 -153 -2 0 -33 10 -69 21
-64 22 -66 22 -130 4 l-65 -17 -50 46 c-44 42 -54 46 -97 46 -27 0 -58 -7 -70
-15 -32 -22 -36 3 -7 51 13 21 24 49 24 61 0 12 13 32 32 46 l31 25 -36 129
c-20 70 -39 140 -43 156 -9 38 3 75 26 82 11 3 25 15 30 26 9 15 0 37 -49 120
-71 119 -86 178 -72 267 5 34 14 69 20 79 5 11 39 28 80 41 81 26 81 26 55
125 -14 54 -13 127 2 127 3 0 25 -16 48 -35 24 -19 48 -35 55 -35 24 0 9 29
-34 64 -59 49 -65 61 -91 194 -19 95 -30 124 -63 176 -51 78 -56 131 -15 146
16 7 24 16 21 24 -3 8 -9 31 -13 52 l-7 37 32 -6 c17 -4 45 -10 61 -13 27 -6
30 -4 30 20 0 15 -15 54 -32 87 l-33 60 39 34 39 35 -36 39 c-47 52 -83 163
-67 205 9 25 14 28 40 23 38 -8 44 4 29 61 -11 43 -10 52 10 91 l22 43 -45 48
c-47 50 -50 58 -39 99 5 21 10 23 48 18 23 -4 45 -4 48 0 4 3 -3 23 -14 45
-12 24 -19 54 -17 76 3 33 6 37 35 40 28 3 34 -1 49 -33 28 -60 94 -81 154
-50 27 14 32 14 55 -1 16 -10 38 -15 61 -12 l36 4 -5 -48 c-6 -46 -38 -108
-56 -108 -5 0 -2 19 7 43 15 43 12 77 -7 77 -5 0 -11 -19 -13 -42 l-3 -43 -53
1 c-44 2 -53 -1 -50 -15 2 -10 19 -20 45 -25 27 -6 43 -16 46 -28 8 -27 25
-22 68 20 28 28 40 35 44 25 3 -8 11 -13 17 -11 21 7 27 68 12 126 -15 56 -12
80 12 120 12 18 24 22 63 22 28 0 53 -6 60 -13z m1154 -47 c15 -16 27 -37 27
-46 0 -14 -2 -14 -22 0 -13 9 -43 16 -71 16 -43 0 -54 -5 -84 -35 -19 -19 -37
-35 -39 -35 -10 0 -3 54 11 80 35 67 127 77 178 20z m-226 5 c19 -4 20 -8 10
-34 -10 -29 -5 -71 24 -183 7 -29 6 -44 -6 -67 -22 -44 -19 -102 8 -142 l23
-34 -27 -35 c-41 -52 -45 -95 -16 -152 23 -46 23 -48 5 -54 -58 -18 -79 -148
-33 -203 l26 -30 -31 -16 c-69 -36 -91 -131 -46 -197 l24 -35 -34 -17 c-73
-34 -97 -137 -49 -208 14 -20 35 -40 47 -44 19 -7 14 -9 -26 -15 -142 -22
-197 -184 -95 -280 l31 -29 -29 0 c-17 0 -45 -10 -63 -22 -93 -64 -105 -170
-29 -254 19 -21 19 -21 -16 -22 -83 -3 -140 -64 -140 -152 0 -30 4 -65 8 -77
7 -18 2 -25 -31 -43 -90 -51 -110 -189 -38 -249 23 -19 20 -31 -7 -31 -13 0
-31 -6 -42 -14 -15 -11 -17 -20 -11 -52 4 -21 12 -59 16 -84 5 -25 9 -106 9
-180 1 -131 0 -136 -28 -185 -16 -27 -41 -61 -55 -74 l-26 -24 0 89 c0 143
-51 293 -125 364 l-33 32 48 102 c313 663 650 1999 650 2576 l0 98 43 -9 c23
-5 52 -11 64 -14z m-2604 -25 c30 -33 37 -93 15 -123 -12 -16 -15 -16 -57 0
-40 16 -47 16 -86 2 -43 -16 -43 -16 -54 8 -15 33 -14 59 4 93 35 67 127 77
178 20z m208 -37 c-9 -150 51 -626 125 -993 76 -372 216 -825 463 -1486 39
-105 71 -194 71 -198 0 -4 -33 -40 -73 -79 -89 -87 -97 -110 -98 -289 l-1
-123 -50 103 c-68 139 -71 183 -28 328 34 114 35 165 4 212 -12 19 -23 22 -72
22 -86 0 -121 -22 -150 -95 -13 -33 -27 -86 -29 -117 -3 -32 -9 -58 -13 -58
-10 0 -30 151 -30 223 0 60 3 63 47 46 50 -19 113 -2 154 41 42 44 55 92 39
149 -12 46 -67 99 -111 108 -23 4 -28 10 -23 22 20 50 24 83 14 120 -12 45
-59 98 -95 107 l-23 6 25 36 c21 32 24 46 21 95 -4 49 -9 62 -38 93 -19 19
-45 37 -58 41 -17 4 -21 10 -16 22 37 86 29 150 -26 202 -35 33 -36 37 -24 60
39 71 -6 177 -87 208 l-27 10 16 43 c20 56 10 107 -29 149 -26 28 -29 36 -20
56 18 39 13 107 -9 136 -20 25 -20 25 1 72 26 59 20 102 -22 150 l-31 35 26
31 c35 41 36 111 3 161 -24 34 -24 34 -5 68 20 39 23 87 7 123 -9 20 -8 30 6
51 14 21 17 40 12 86 l-5 59 62 9 c108 17 101 20 97 -45z m102 39 c45 -50 180
-380 251 -613 47 -155 130 -530 119 -540 -9 -9 -245 -91 -249 -86 -8 8 -128
590 -144 702 -37 252 -48 507 -24 546 8 14 30 11 47 -9z m2120 -32 c12 -56 -6
-320 -33 -503 -16 -112 -136 -696 -144 -704 -4 -5 -240 78 -250 87 -9 9 60
328 109 500 38 133 109 333 167 470 84 199 132 247 151 150z m526 13 c32 -27
51 -177 51 -408 0 -494 -122 -1061 -385 -1800 -31 -88 -63 -171 -70 -185 -13
-24 -13 -24 -40 31 l-28 56 47 133 c156 443 285 971 336 1370 31 244 45 656
26 757 -4 23 -5 47 -1 53 10 15 40 12 64 -7z m-3243 -255 c1 -511 101 -1015
350 -1757 l92 -275 -26 -53 c-14 -29 -29 -53 -32 -53 -6 0 -38 87 -132 355
-276 794 -392 1452 -334 1894 14 107 26 131 66 131 14 0 16 -27 16 -242z
m3120 204 c30 -24 44 -55 44 -95 0 -52 -18 -61 -70 -35 -42 21 -45 21 -89 5
-25 -9 -48 -14 -51 -11 -3 3 -5 26 -5 51 0 38 5 49 33 74 38 34 103 40 138 11z
m-3038 -104 c-14 -28 -18 -21 -18 30 l1 47 13 -30 c9 -19 10 -36 4 -47z m-323
32 c-19 -20 -92 -56 -231 -115 -112 -48 -207 -85 -212 -83 -5 1 -5 17 -1 33 8
29 18 34 231 112 123 44 227 81 232 82 6 1 -3 -12 -19 -29z m3883 -50 l190
-81 6 -41 c4 -22 5 -42 3 -44 -2 -2 -83 33 -181 78 -167 78 -178 84 -201 125
-13 24 -20 43 -15 43 4 0 94 -36 198 -80z m-3365 10 c21 -23 27 -40 27 -73 -1
-60 -17 -77 -67 -70 -23 3 -57 0 -75 -6 -29 -11 -35 -9 -50 10 -11 13 -18 38
-18 64 0 104 114 151 183 75z m2812 -54 c66 -28 84 -119 33 -173 -18 -19 -28
-22 -53 -17 -16 4 -44 6 -62 5 -89 -5 -97 146 -10 184 41 18 50 18 92 1z m442
-452 c-2 -2 -47 27 -101 64 l-98 67 6 80 c3 44 6 103 7 130 l1 50 94 -194 c52
-107 93 -195 91 -197z m-3423 321 c-1 0 -10 -18 -22 -40 l-21 -40 -1 69 0 69
23 -29 c12 -16 22 -29 21 -29z m-241 -78 l6 -117 -79 -40 c-44 -22 -80 -37
-80 -33 0 9 143 314 145 311 1 -2 5 -56 8 -121z m404 73 c21 -13 36 -32 44
-59 10 -34 9 -44 -8 -78 -19 -37 -22 -38 -84 -45 -62 -6 -65 -6 -91 23 -42 44
-39 100 6 145 40 40 83 45 133 14z m-1097 6 c0 -2 -12 -29 -26 -61 -20 -42
-37 -64 -68 -83 -79 -50 -294 -157 -301 -150 -4 4 -3 18 1 32 7 19 60 59 194
145 170 110 200 128 200 117z m384 -185 l-79 -180 -200 -94 c-110 -52 -201
-91 -202 -88 -1 3 32 98 75 211 l77 205 200 66 c110 37 202 65 204 63 2 -2
-31 -85 -75 -183z m4651 105 l120 -58 57 -81 c32 -45 56 -83 54 -84 -2 -2 -68
33 -148 78 -137 77 -146 84 -181 140 -37 59 -43 73 -29 66 4 -2 61 -29 127
-61z m-190 -176 c8 -14 123 -374 120 -378 -1 -2 -92 47 -200 107 l-198 110
-64 177 c-35 98 -63 181 -63 186 0 10 396 -187 405 -202z m-875 169 c0 -28 -1
-29 -16 -14 -13 12 -14 19 -4 30 17 21 20 19 20 -16z m-83 -9 c8 0 28 -13 44
-29 66 -67 18 -180 -76 -181 -122 0 -153 156 -40 206 17 7 36 11 43 9 8 -3 20
-5 29 -5z m-2950 -102 l25 -27 -21 -29 c-11 -17 -21 -36 -22 -44 -1 -7 -5 -2
-9 12 -9 28 -12 154 -3 130 3 -8 17 -27 30 -42z m161 -42 c51 -26 71 -98 41
-152 -12 -23 -18 -25 -50 -20 -20 3 -51 1 -69 -6 -31 -10 -35 -9 -57 16 -40
47 -27 126 25 159 33 20 74 21 110 3z m-1268 -63 c0 -4 -30 -99 -67 -210 l-68
-203 -182 -135 c-101 -74 -183 -130 -183 -125 0 5 34 111 75 237 l74 228 168
107 c167 106 183 115 183 101z m4130 -7 c0 -7 -3 -28 -6 -45 l-7 -32 -19 32
c-18 30 -18 32 -1 45 23 17 33 17 33 0z m-95 -20 c106 -45 69 -206 -47 -206
-52 0 -108 51 -108 99 0 43 24 87 58 105 34 19 54 20 97 2z m-3152 -73 c5 -24
-44 -298 -54 -307 -12 -10 -370 -168 -373 -165 -5 6 138 397 149 408 11 11
232 88 256 90 10 1 19 -9 22 -26z m232 -61 c-6 -15 -8 -15 -15 3 -5 11 -9 29
-9 40 -1 18 0 18 15 -3 9 -13 13 -30 9 -40z m165 13 c33 -17 60 -61 60 -97 0
-29 -35 -88 -52 -88 -7 0 5 -10 27 -23 45 -26 65 -57 65 -105 0 -46 -55 -102
-99 -102 -64 0 -121 52 -121 110 0 28 26 77 47 89 16 8 14 10 -10 16 -68 18
-100 113 -56 169 36 46 88 58 139 31z m3180 -53 l134 -67 58 -174 c32 -96 57
-176 55 -177 -1 -1 -79 30 -174 69 l-172 72 -35 110 c-30 94 -34 119 -29 173
3 36 10 62 17 61 6 0 72 -30 146 -67z m1127 -166 c10 -9 73 -281 73 -315 0 -6
-74 41 -164 105 l-163 115 -23 137 c-12 75 -24 150 -28 166 -5 27 6 20 144
-84 82 -62 155 -118 161 -124z m107 157 c36 -42 64 -79 61 -81 -3 -3 -22 3
-42 12 -32 14 -42 27 -65 81 -15 36 -25 65 -23 65 2 0 33 -35 69 -77z m-1599
-113 c-16 -123 -53 -321 -61 -329 -2 -2 -4 7 -4 21 0 14 -10 44 -23 68 l-23
44 43 41 c41 39 43 45 43 98 0 45 -5 61 -25 85 -31 37 -31 38 0 46 14 4 32 18
41 31 9 14 19 24 21 21 2 -2 -3 -59 -12 -126z m-78 16 c43 -50 42 -108 -2
-151 -46 -47 -107 -45 -156 5 -43 43 -41 100 6 147 33 33 39 35 82 30 35 -4
53 -12 70 -31z m-3733 -218 c-35 -112 -63 -211 -64 -220 0 -10 -26 -35 -57
-56 -62 -42 -286 -172 -296 -172 -4 0 -11 8 -16 18 -7 14 9 69 68 227 l77 210
169 97 c94 54 173 98 176 98 3 0 -23 -91 -57 -202z m872 145 c-3 -8 -6 -17 -6
-19 0 -3 -4 -2 -10 1 -17 11 -12 45 6 38 8 -3 13 -12 10 -20z m3821 -84 c98
-55 181 -104 186 -108 8 -8 108 -393 103 -398 -5 -6 -350 237 -358 251 -10 17
-118 336 -118 347 0 5 2 9 5 9 3 0 85 -45 182 -101z m-5467 64 c-5 -16 -30
-97 -55 -182 -46 -159 -53 -172 -119 -224 -33 -26 -38 -28 -32 -10 4 11 9 57
11 101 6 94 45 230 75 257 26 24 113 84 122 84 4 1 3 -11 -2 -26z m4462 -152
c69 -77 1 -204 -100 -187 -44 7 -90 50 -98 92 -8 41 19 99 55 120 43 24 110
12 143 -25z m1914 -86 c22 -33 45 -325 27 -325 -5 0 -25 27 -46 59 -35 55 -40
73 -66 228 l-29 168 50 -54 c27 -30 56 -64 64 -76z m-4902 -5 l23 -101 -31
-23 c-49 -37 -137 -89 -141 -84 -3 3 6 31 19 64 13 32 40 103 61 157 21 54 39
96 42 93 3 -2 15 -50 27 -106z m224 63 c15 -9 28 -17 29 -18 2 -1 -6 -18 -16
-39 -20 -39 -24 -38 -35 9 -4 17 -9 38 -12 48 -7 21 0 21 34 0z m201 -11 c35
-19 71 -72 71 -105 0 -10 -7 -33 -14 -52 -13 -30 -20 -35 -48 -35 -19 0 -51
-9 -72 -20 l-39 -19 -40 39 c-38 38 -39 43 -35 90 6 55 26 85 73 106 41 18 64
17 104 -4z m-723 -237 l-62 -210 -153 -93 c-84 -52 -154 -92 -156 -90 -6 6 73
402 81 405 5 2 85 48 179 103 93 54 170 98 171 97 1 -1 -26 -97 -60 -212z
m3606 2 c31 -89 56 -162 55 -163 -1 -2 -44 22 -95 53 -70 41 -93 59 -89 71 32
115 63 210 67 206 2 -3 30 -78 62 -167z m-293 33 l-33 -121 -18 37 c-23 49
-46 74 -83 91 -29 13 -29 13 -5 12 60 -3 81 3 115 32 19 17 38 42 41 56 4 13
8 22 11 20 2 -3 -10 -60 -28 -127z m606 23 l182 -87 43 -203 c24 -112 41 -205
38 -208 -6 -6 -343 172 -356 188 -5 6 -28 91 -51 187 -23 96 -44 183 -47 193
-3 9 -2 17 2 17 3 0 89 -39 189 -87z m-4865 -125 c-17 -89 -35 -175 -40 -190
-9 -27 -269 -343 -276 -335 -2 2 12 111 32 243 27 182 40 243 54 258 36 37
255 203 258 196 2 -5 -11 -82 -28 -172z m5828 14 c72 -57 132 -107 132 -110 0
-4 11 -98 26 -210 14 -112 24 -208 22 -214 -3 -8 -238 261 -260 297 -4 6 -20
78 -37 160 -17 83 -34 161 -37 174 -9 31 -11 32 154 -97z m-1689 52 c93 -78
37 -224 -86 -224 -35 0 -50 6 -81 34 -34 32 -37 38 -37 91 0 53 3 59 37 91 32
29 45 34 87 34 39 0 56 -6 80 -26z m-2390 -9 c40 -34 56 -84 41 -130 -24 -74
-109 -107 -180 -70 -69 36 -80 144 -21 197 43 38 116 40 160 3z m-210 -18 c-1
-23 -16 -51 -21 -41 -3 5 -9 24 -13 42 -7 32 -6 33 14 23 12 -7 21 -17 20 -24z
m-186 -209 c31 -123 35 -154 25 -163 -7 -7 -68 -49 -136 -95 l-123 -83 -40 13
c-77 26 -75 18 -45 191 15 84 29 155 30 157 5 4 241 131 246 131 3 1 22 -67
43 -151z m-936 -148 l-33 -195 -159 -142 c-88 -79 -162 -143 -165 -143 -12 0
30 434 42 446 7 7 87 69 178 137 117 88 166 119 168 108 1 -9 -13 -104 -31
-211z m3746 79 c-27 -92 -27 -93 -37 -60 -5 19 -25 49 -43 68 l-34 33 26 0
c30 0 75 21 95 45 7 8 14 14 16 12 2 -2 -9 -46 -23 -98z m1429 -305 c9 -104
16 -192 15 -196 -4 -15 -297 223 -301 245 -6 29 -36 301 -36 328 0 17 26 3
153 -83 l152 -104 17 -190z m-3966 293 l-21 -49 -17 59 c-10 32 -18 61 -18 65
0 3 17 -1 38 -10 l39 -16 -21 -49z m2885 29 l124 -53 12 -74 c21 -131 25 -123
-73 -169 -48 -22 -92 -40 -98 -39 -6 0 -40 15 -76 32 -63 32 -65 33 -73 82 -8
41 -4 70 19 163 16 61 31 112 34 112 3 0 62 -24 131 -54z m-2680 27 c31 -18
59 -67 59 -103 0 -36 -31 -90 -61 -105 -64 -33 -145 -10 -173 49 -9 19 -16 47
-16 63 0 34 30 82 62 99 33 19 95 17 129 -3z m2216 -39 c62 -39 69 -142 15
-196 -60 -61 -171 -42 -203 34 -50 122 78 233 188 162z m2094 -210 l-28 -109
-6 60 c-4 33 -9 110 -12 170 l-6 110 40 -61 39 -61 -27 -109z m-5310 79 c-10
-27 -27 -67 -36 -91 l-18 -43 -51 7 c-95 13 -95 13 16 96 57 43 104 78 105 78
2 0 -6 -21 -16 -47z m829 -51 c0 -5 16 -17 35 -28 19 -10 35 -20 35 -21 0 -1
-10 -19 -22 -39 -14 -24 -24 -32 -26 -23 -3 8 -13 38 -23 67 -10 28 -14 52 -8
52 5 0 9 -4 9 -8z m224 -46 c50 -21 76 -60 76 -115 0 -26 -7 -56 -16 -69 -34
-48 -109 -66 -163 -38 -89 46 -81 181 13 222 40 17 49 17 90 0z m2174 -129
c-23 -75 -45 -137 -51 -137 -5 0 -6 8 -2 18 24 62 13 130 -30 176 l-24 26 25
0 c32 0 85 22 103 44 8 9 15 15 17 13 2 -1 -15 -65 -38 -140z m-2583 40 c14
-37 25 -71 25 -75 0 -4 -12 -13 -27 -19 -16 -6 -53 -22 -84 -36 l-56 -25 -31
63 -31 64 86 50 c48 28 88 49 90 48 1 -2 14 -33 28 -70z m-383 6 c37 -17 91
-53 119 -80 73 -69 181 -237 303 -473 70 -134 131 -237 178 -298 73 -97 263
-302 279 -302 5 0 -18 33 -52 73 -143 169 -194 263 -229 425 -23 103 -25 212
-5 304 27 128 71 183 115 143 11 -10 20 -28 20 -39 0 -16 6 -11 23 19 44 78
138 95 198 36 51 -52 48 -130 -8 -183 -19 -18 -36 -23 -78 -23 -46 0 -58 4
-84 29 -17 17 -31 37 -32 45 0 9 -5 3 -10 -14 -5 -16 -10 -104 -12 -195 l-2
-165 33 -80 c18 -44 46 -101 61 -128 l27 -47 0 162 c-1 189 9 237 61 285 40
38 75 50 112 37 40 -14 39 -53 -4 -142 -35 -73 -36 -82 -36 -175 1 -101 18
-207 44 -268 20 -49 125 -184 201 -259 l67 -65 -14 45 c-8 25 -31 93 -51 152
-63 182 -60 317 9 423 35 53 85 87 122 83 36 -4 40 -30 13 -92 -24 -57 -25
-104 -5 -222 22 -127 61 -257 104 -349 31 -65 54 -96 122 -162 91 -89 194
-176 332 -281 l87 -67 -39 -17 c-22 -9 -47 -28 -57 -43 l-17 -26 -18 30 c-18
31 -78 57 -106 47 -9 -4 -99 41 -232 116 -119 67 -248 139 -288 160 -152 81
-471 183 -609 195 -55 4 -269 -8 -349 -20 -5 -1 -9 9 -7 23 10 71 72 119 184
142 32 7 58 15 58 18 0 4 -69 24 -152 46 -188 47 -249 50 -332 11 -32 -15 -67
-27 -77 -27 -43 0 -27 81 25 130 25 23 35 25 119 25 51 0 125 -3 166 -8 41 -4
73 -5 70 -3 -3 3 -95 29 -205 57 -254 66 -321 70 -406 22 -55 -31 -58 -32 -68
-14 -15 29 -12 57 10 101 31 61 55 71 198 84 l127 11 -100 56 c-149 84 -173
95 -256 113 -89 19 -116 36 -136 83 -12 31 -12 38 1 58 35 53 221 54 311 1 22
-13 96 -81 165 -150 105 -106 137 -132 206 -167 138 -70 133 -45 -14 65 -135
100 -191 157 -341 343 -91 114 -106 127 -276 245 -133 92 -146 114 -85 135 93
32 191 8 337 -83 141 -87 264 -235 434 -523 45 -76 82 -112 99 -95 6 6 -40 87
-121 214 -186 290 -208 315 -369 423 -99 66 -97 63 -74 88 29 32 127 24 216
-18z m2823 23 c77 -33 99 -144 40 -205 -26 -28 -26 -29 -6 -36 28 -9 58 -53
83 -122 15 -44 21 -83 21 -158 1 -165 -17 -240 -98 -420 -14 -33 -22 -55 -17
-50 30 31 184 293 259 440 143 283 202 360 376 491 51 38 65 44 105 43 57 -1
126 -20 121 -34 -2 -5 -35 -35 -74 -66 -112 -89 -167 -159 -270 -339 -26 -47
-79 -129 -117 -184 -38 -54 -68 -100 -66 -102 6 -5 148 160 183 213 18 26 67
100 109 164 93 142 138 184 257 244 108 55 204 78 264 65 49 -11 112 -36 119
-48 3 -5 -34 -28 -82 -52 -82 -40 -97 -53 -282 -241 -107 -109 -223 -221 -257
-247 -72 -57 -209 -182 -198 -182 15 0 187 125 279 205 55 47 118 94 141 105
56 27 131 26 250 -5 118 -31 146 -44 95 -45 -58 -1 -131 -32 -220 -95 -46 -33
-132 -83 -190 -112 l-105 -51 87 5 c85 6 87 5 112 -22 21 -22 69 -125 62 -132
-1 -1 -37 3 -81 9 -125 17 -208 0 -400 -82 -88 -38 -204 -85 -258 -106 -54
-20 -96 -38 -94 -40 2 -2 44 10 93 26 49 17 132 39 186 50 169 35 250 23 280
-41 17 -37 33 -99 25 -99 -3 0 -45 10 -94 21 -52 13 -122 22 -173 22 -73 0
-97 -4 -175 -34 l-90 -34 92 -6 c52 -3 99 -11 107 -19 16 -13 56 -128 56 -161
0 -23 -14 -24 -67 -5 -88 31 -291 59 -396 54 -118 -5 -112 -3 -587 -210 l-295
-128 -35 26 c-19 14 -50 35 -67 47 -18 12 -33 24 -33 27 0 3 33 31 73 63 108
84 224 207 249 263 18 41 22 72 24 184 3 100 1 125 -6 97 -16 -64 -56 -131
-104 -175 -53 -49 -77 -55 -46 -12 45 64 105 260 78 260 -4 0 -8 -6 -8 -13 0
-33 -55 -176 -83 -216 -18 -25 -35 -49 -38 -53 -3 -5 -24 10 -47 33 -36 35
-42 47 -42 83 0 96 69 211 152 254 68 35 119 16 140 -51 4 -12 5 25 1 83 -3
58 -6 116 -7 129 -2 35 42 48 89 25 66 -31 107 -137 120 -314 5 -66 2 -107
-14 -185 -11 -54 -19 -100 -18 -101 4 -5 134 150 169 201 40 60 49 94 74 266
l17 116 -31 68 c-18 37 -32 73 -32 81 0 18 47 29 79 18 77 -27 122 -219 98
-414 l-9 -65 37 50 c62 83 83 139 99 270 20 152 20 258 0 346 -9 39 -14 81
-12 94 4 20 0 23 -39 28 -132 15 -160 189 -38 243 39 17 58 17 100 0z m401
-67 c40 -22 76 -43 78 -47 3 -4 -10 -25 -28 -46 l-32 -39 -65 28 c-35 16 -66
30 -68 32 -5 4 31 113 37 113 3 0 38 -18 78 -41z m1597 -117 l94 -112 -41
-108 c-22 -59 -45 -110 -51 -112 -5 -2 -31 32 -57 76 l-48 80 -15 149 c-8 83
-15 157 -15 165 0 19 12 7 133 -138z m-6005 -111 c-3 -187 -5 -221 -21 -244
-9 -15 -21 -27 -25 -27 -10 0 -154 270 -150 280 2 5 46 61 98 124 62 75 96
110 98 99 2 -8 2 -113 0 -232z m790 37 l33 -29 -25 -30 c-54 -63 -181 -199
-187 -199 -3 0 -9 80 -12 178 -7 174 -6 177 15 194 21 16 24 15 83 -34 33 -28
75 -64 93 -80z m867 -7 l23 -64 -31 -26 c-17 -14 -37 -26 -45 -26 -8 0 -33 21
-55 47 l-40 48 29 22 c16 13 40 33 54 45 14 12 29 21 34 20 5 -2 19 -31 31
-66z m3606 52 c0 -5 6 -62 13 -128 7 -66 12 -122 10 -123 -2 -3 -196 102 -213
115 -8 6 43 55 103 99 54 41 85 54 87 37z m-928 -49 c17 -9 33 -18 35 -19 6
-5 -38 -95 -47 -95 -6 0 -31 10 -57 22 -49 24 -51 32 -25 100 11 30 20 29 94
-8z m-429 2 c49 -20 76 -61 76 -113 0 -89 -54 -140 -138 -130 -137 15 -151
216 -17 250 34 8 45 7 79 -7z m-3478 -53 c-3 -21 -6 -109 -6 -195 l0 -158 -52
40 c-66 50 -135 75 -156 58 -12 -10 -13 -32 -8 -118 3 -58 9 -121 12 -140 5
-33 3 -37 -31 -53 -19 -9 -38 -17 -40 -17 -3 0 -5 87 -4 193 l0 192 137 117
c75 64 141 117 146 117 5 1 6 -16 2 -36z m5206 -125 c46 -35 80 -68 82 -81 5
-22 26 -288 26 -320 0 -15 -3 -14 -33 3 l-34 20 5 78 c8 137 -38 191 -116 139
l-38 -25 -37 19 -37 19 0 141 0 141 53 -38 c28 -21 87 -64 129 -96z m-1380 26
l50 -26 -33 -34 c-22 -22 -35 -30 -38 -22 -2 7 -14 34 -28 61 -13 26 -19 47
-13 47 6 0 34 -12 62 -26z m-1068 -105 c15 -79 -8 -335 -32 -344 -12 -5 -13
19 -7 177 4 101 9 186 12 191 9 16 21 6 27 -24z m796 -47 c0 -64 -24 -239 -34
-249 -2 -2 -9 22 -16 54 -17 86 -27 115 -60 167 -17 26 -30 48 -30 50 0 2 17
6 39 10 21 3 49 14 62 25 13 11 27 17 31 14 5 -2 8 -34 8 -71z m-3624 -144
c29 -29 78 -91 109 -138 75 -112 198 -279 206 -280 4 0 0 30 -8 68 -37 177
-36 301 4 361 l16 25 23 -30 c13 -16 33 -57 45 -91 18 -55 20 -76 13 -177 -3
-63 -4 -130 0 -150 8 -41 73 -125 139 -179 l46 -38 -26 58 c-34 76 -39 178 -8
178 27 0 86 -81 141 -193 67 -134 112 -188 190 -223 35 -16 66 -29 70 -29 3 0
-17 20 -44 45 -36 33 -55 59 -65 93 -33 104 -31 132 8 132 39 0 82 -47 130
-139 51 -98 74 -124 159 -175 77 -46 97 -47 57 -1 -16 19 -36 53 -42 75 -11
36 -10 43 5 58 19 19 18 19 107 -89 25 -30 66 -60 129 -94 121 -65 119 -65 76
-10 -56 74 -73 155 -32 155 17 0 64 -44 123 -115 49 -59 60 -55 70 24 5 42 9
52 22 48 36 -9 162 -100 175 -126 12 -22 106 -111 106 -99 0 2 -11 25 -25 52
-26 51 -33 110 -15 121 13 8 61 -25 129 -89 35 -33 49 -41 38 -25 -21 35 -12
42 31 23 29 -12 140 -104 150 -125 1 -3 -14 -13 -35 -23 -41 -18 -303 -48
-303 -34 0 4 6 8 13 9 6 0 30 9 52 20 l40 19 -55 -6 c-30 -3 -84 -19 -120 -34
-36 -16 -100 -34 -143 -41 -87 -15 -103 -8 -91 41 9 39 19 46 112 71 85 23 86
24 44 27 -76 6 -141 -15 -231 -73 -46 -30 -94 -55 -106 -55 -38 0 -174 -31
-203 -46 -15 -8 -33 -14 -39 -14 -60 0 122 135 220 164 80 24 93 38 27 30 -69
-8 -104 -22 -177 -72 -124 -84 -191 -102 -228 -62 -32 36 -11 69 70 111 39 19
86 41 105 48 l35 13 -40 10 c-22 5 -76 8 -121 6 -75 -4 -89 -8 -210 -68 -110
-54 -137 -63 -185 -64 -66 -1 -109 22 -109 58 0 29 72 141 102 158 13 7 47 22
77 34 61 24 54 40 -13 30 -28 -5 -66 -23 -112 -57 -87 -63 -124 -73 -207 -59
-75 13 -136 45 -156 82 -15 25 -14 29 9 52 31 34 76 46 185 47 50 1 115 4 145
8 l55 6 -30 17 c-36 19 -100 32 -254 54 -135 18 -156 26 -239 89 -72 55 -88
75 -98 129 l-7 38 124 -6 124 -7 -30 23 c-77 59 -204 170 -246 215 -38 40 -52
66 -77 143 -36 114 -44 145 -35 153 8 9 50 -23 109 -85z m5283 49 c19 -57 -23
-178 -106 -304 -22 -34 -76 -85 -157 -150 -68 -54 -123 -99 -121 -101 1 -1 31
4 66 13 79 18 159 20 159 3 0 -23 -130 -139 -183 -163 -28 -13 -88 -28 -132
-34 -123 -17 -287 -53 -278 -62 4 -4 73 -24 152 -44 196 -49 261 -84 223 -118
-61 -56 -211 -82 -298 -53 -50 16 -237 56 -258 55 -6 0 26 -12 72 -26 170 -54
237 -173 98 -173 -20 0 -106 18 -193 41 -106 27 -194 43 -268 48 -60 5 -111 7
-113 6 -2 -2 24 -16 58 -31 75 -33 112 -74 108 -118 -3 -28 -6 -31 -38 -30
-19 1 -100 29 -179 63 -79 34 -146 59 -149 57 -2 -3 21 -16 52 -30 63 -28 79
-51 50 -73 -35 -27 -121 -11 -239 45 -58 28 -105 50 -105 48 0 -1 20 -17 45
-35 25 -18 45 -37 45 -43 0 -13 -184 -5 -202 9 -7 5 -35 22 -63 38 l-50 28 29
-32 30 -31 -80 0 c-57 0 -91 6 -123 20 -57 26 -62 25 -26 -5 l30 -24 -65 -1
c-47 0 -74 -6 -99 -21 -18 -11 -34 -19 -35 -17 -1 2 -24 26 -50 55 l-48 52 57
36 c81 52 144 82 189 91 l39 7 -22 -32 c-25 -35 -14 -42 15 -10 35 39 136 109
156 109 18 0 19 -4 14 -37 -4 -21 -10 -47 -13 -58 -4 -13 13 -3 49 31 40 38
69 56 110 68 59 17 78 20 78 11 0 -3 -14 -33 -31 -67 l-31 -61 59 51 c64 56
125 86 205 101 81 14 87 1 34 -78 -19 -28 -31 -51 -27 -51 4 0 40 29 79 65 61
54 78 65 108 65 34 0 36 -2 31 -27 -3 -16 -8 -38 -12 -50 -7 -23 -7 -23 39 -9
90 27 174 116 233 246 53 116 93 147 127 98 26 -37 19 -92 -20 -169 l-35 -71
33 23 c101 70 126 98 149 167 38 117 65 168 102 196 51 39 72 32 72 -24 0 -25
-4 -69 -8 -99 l-8 -54 33 25 c18 14 46 44 63 67 29 41 30 46 37 204 8 193 11
213 47 292 42 91 65 94 103 10 33 -75 29 -169 -15 -320 -35 -118 -35 -120 -11
-90 96 115 191 254 234 340 63 127 102 175 140 175 23 0 30 -6 39 -33z m-2886
-194 c89 -45 172 -281 123 -348 -12 -17 -15 -11 -31 61 -12 58 -27 94 -52 128
-34 47 -58 59 -30 14 28 -43 56 -145 59 -214 3 -59 1 -69 -15 -72 -58 -12
-140 56 -182 150 -55 122 -41 263 29 294 32 14 52 11 99 -13z m295 -65 c63
-19 31 -33 -77 -33 -129 0 -149 15 -54 41 48 12 69 11 131 -8z m-34 -60 c28
-12 28 -6 -3 -123 -14 -52 -19 -60 -40 -60 -22 0 -26 8 -41 72 -9 40 -23 79
-30 88 -10 12 -10 16 1 19 8 2 21 7 29 9 26 9 58 7 84 -5z m291 -199 c-8 -22
-24 -54 -35 -70 -21 -29 -107 -86 -116 -76 -3 2 18 23 45 46 28 24 63 65 77
92 33 59 48 64 29 8z m-274 -56 c47 -40 69 -95 69 -177 0 -84 -27 -148 -74
-177 -39 -24 -50 -24 -41 -1 4 9 15 50 26 91 16 63 17 84 8 140 -17 107 -29
97 -29 -25 0 -116 -19 -211 -45 -220 -24 -9 -76 36 -98 85 -78 174 61 387 184
284z m215 -128 c-24 -39 -93 -101 -104 -91 -9 10 41 86 79 121 51 46 62 33 25
-30z m-413 -511 c18 -12 18 -13 -1 -23 -15 -8 -28 -7 -51 5 -54 27 -135 -3
-153 -57 -3 -10 -11 -6 -30 16 -15 17 -26 31 -25 31 1 1 36 22 77 47 l74 45
46 -26 c25 -14 53 -31 63 -38z m-2305 -46 c18 -94 18 -104 4 -113 -9 -5 -29
-22 -44 -37 -39 -37 -39 -103 -2 -147 14 -17 32 -31 39 -31 8 0 16 -4 20 -9 3
-6 0 -83 -6 -172 l-11 -162 -39 -37 c-33 -32 -39 -43 -39 -79 0 -58 50 -111
104 -111 40 0 96 24 96 41 0 7 10 5 25 -5 38 -25 108 -21 142 8 25 21 31 22
48 10 34 -25 90 -18 129 17 33 29 37 30 58 15 37 -26 101 -21 135 12 l29 27
38 -19 c32 -16 44 -17 76 -7 22 6 47 22 57 35 l19 23 28 -23 c18 -16 40 -24
64 -24 39 0 102 32 102 51 0 8 7 6 18 -4 49 -45 134 -42 167 6 10 14 18 18 23
11 27 -41 116 -46 157 -8 25 23 28 24 45 9 41 -37 150 -23 167 21 5 12 11 10
33 -11 47 -45 127 -41 169 8 10 13 16 11 41 -14 23 -24 37 -29 76 -29 42 0 51
4 84 39 l38 39 11 -24 c11 -24 64 -54 97 -54 32 0 85 33 100 63 l16 29 17 -28
c25 -40 44 -54 84 -61 41 -6 89 16 114 53 l16 26 14 -26 c15 -28 61 -56 93
-56 39 0 89 29 110 62 11 18 20 28 20 21 0 -6 12 -25 26 -42 45 -54 129 -51
174 7 l20 25 20 -26 c37 -47 107 -54 159 -17 23 16 25 16 48 -6 37 -34 77 -39
124 -16 l41 20 36 -25 c43 -29 100 -27 133 3 13 12 23 14 27 8 30 -44 98 -56
148 -25 31 19 32 19 52 -1 11 -12 38 -22 64 -25 37 -4 49 -1 76 22 27 23 33
24 38 11 17 -45 114 -60 158 -25 l27 21 20 -26 c37 -47 123 -53 170 -10 18 16
20 15 45 -9 37 -37 84 -44 133 -20 32 16 41 17 45 6 3 -7 21 -21 41 -30 31
-15 42 -15 82 -5 42 12 48 11 67 -7 67 -63 186 -9 186 84 0 58 -55 115 -111
115 -22 0 -22 1 -16 118 9 163 17 212 34 212 31 0 75 33 90 67 20 49 10 95
-28 128 l-31 25 17 78 c9 42 19 86 22 96 4 13 34 -38 102 -170 155 -303 297
-513 463 -689 44 -47 79 -87 77 -89 -2 -2 -39 -14 -82 -25 -88 -25 -217 -76
-307 -121 -51 -26 -187 -105 -199 -116 -15 -14 230 -270 344 -359 215 -168
430 -277 661 -336 l91 -23 17 -92 c65 -365 223 -726 446 -1019 81 -107 273
-297 384 -379 253 -189 622 -372 1011 -502 61 -20 112 -38 114 -40 3 -3 -29
-135 -35 -143 -2 -2 -34 19 -71 47 -217 159 -509 290 -790 353 -56 13 -105 20
-109 16 -18 -17 -27 -277 -16 -437 47 -663 287 -1140 801 -1592 107 -94 337
-274 420 -329 l24 -15 -60 -80 c-33 -43 -82 -112 -108 -151 -26 -40 -49 -73
-51 -73 -2 0 -19 30 -38 68 -76 150 -207 329 -347 473 -133 136 -342 301 -359
283 -44 -45 -159 -298 -220 -484 -160 -485 -159 -938 5 -1408 78 -225 237
-555 348 -723 l18 -27 -113 -59 c-62 -33 -144 -78 -181 -101 -44 -26 -69 -37
-71 -29 -2 7 -18 71 -36 142 -18 72 -50 180 -72 240 -45 122 -158 361 -210
443 l-34 53 -65 -47 c-171 -126 -383 -331 -525 -510 -298 -375 -469 -775 -527
-1238 l-12 -98 -120 -39 c-224 -75 -498 -223 -676 -367 -163 -132 -343 -346
-445 -529 -16 -29 -33 -53 -39 -53 -5 0 -59 -7 -120 -15 -735 -97 -2886 -93
-3578 6 l-77 11 -52 87 c-245 410 -638 713 -1123 867 -49 15 -91 29 -93 30 -2
1 -10 53 -18 115 -56 432 -208 803 -472 1154 -162 215 -331 388 -542 552 l-95
73 -21 -26 c-35 -43 -159 -290 -207 -414 -43 -110 -92 -272 -119 -391 l-13
-57 -96 57 c-53 31 -133 74 -178 96 -44 21 -81 42 -81 47 0 4 32 63 71 130
185 320 312 638 375 933 36 167 45 472 19 661 -35 260 -111 508 -230 749 -94
190 -87 180 -116 165 -45 -24 -194 -145 -283 -230 -161 -154 -316 -358 -397
-522 -30 -61 -49 -84 -49 -59 0 8 -115 174 -182 262 l-28 36 83 56 c249 169
591 486 740 684 205 275 328 565 394 933 24 132 27 169 27 417 1 149 -2 274
-6 278 -16 16 -226 -35 -398 -97 -133 -47 -316 -139 -431 -216 -58 -39 -111
-78 -119 -86 -7 -9 -16 -16 -21 -16 -8 0 -54 139 -47 145 2 1 48 17 103 35
382 124 778 320 1027 508 417 314 705 791 818 1352 l27 135 49 13 c302 80 534
201 766 400 126 108 293 293 277 306 -99 78 -381 208 -536 247 -29 7 -53 15
-53 19 0 3 30 35 66 70 173 171 372 471 519 782 33 70 63 128 66 128 4 0 16
-46 27 -102z m1620 -21 c48 -45 11 -137 -56 -137 -44 0 -82 35 -82 75 0 49 9
66 44 81 36 15 62 10 94 -19z m198 9 c54 -46 30 -127 -43 -142 -27 -5 -37 -1
-63 24 -39 39 -39 74 -1 113 36 35 70 37 107 5z m423 9 c65 -33 50 -132 -23
-151 -28 -7 -81 18 -90 41 -17 46 0 100 37 115 32 13 44 12 76 -5z m247 -9
c54 -46 30 -127 -43 -142 -27 -5 -37 -1 -63 24 -39 39 -39 74 -1 113 36 35 70
37 107 5z m207 13 c53 -24 60 -87 17 -131 -26 -25 -36 -29 -63 -24 -72 14 -97
97 -43 142 30 26 53 30 89 13z m253 -13 c54 -46 30 -127 -43 -142 -27 -5 -37
-1 -63 24 -39 39 -39 74 -1 113 36 35 70 37 107 5z m212 8 c32 -22 43 -57 31
-94 -13 -36 -36 -50 -83 -50 -25 0 -40 7 -55 26 -60 76 29 173 107 118z
m-1128 -19 c72 -77 -41 -185 -115 -110 -16 15 -25 36 -25 55 0 71 91 107 140
55z m1335 0 c62 -61 -3 -162 -85 -134 -36 13 -50 36 -50 83 0 68 86 101 135
51z m-1944 -4 c18 -14 24 -29 24 -61 0 -50 -29 -80 -77 -80 -41 0 -63 14 -78
50 -14 34 0 83 29 100 27 16 77 11 102 -9z m2130 -10 c17 -18 29 -40 29 -56 0
-34 -50 -85 -84 -85 -41 0 -80 41 -80 85 0 29 7 43 28 61 37 32 71 30 107 -5z
m-2328 -1 c68 -54 21 -153 -68 -141 -11 1 -30 13 -42 27 -66 73 32 175 110
114z m2496 5 c31 -16 41 -33 41 -74 0 -61 -62 -96 -118 -67 -60 31 -58 111 3
144 27 15 41 15 74 -3z m209 -31 c30 -34 28 -70 -7 -105 -34 -34 -68 -37 -104
-9 -31 25 -41 63 -25 98 27 56 93 64 136 16z m-2889 0 c63 -80 -38 -179 -113
-111 -24 21 -30 39 -27 80 4 57 102 79 140 31z m1746 16 c3 -5 1 -10 -4 -10
-6 0 -11 5 -11 10 0 6 2 10 4 10 3 0 8 -4 11 -10z m-1953 -30 c25 -26 29 -36
24 -63 -15 -73 -96 -97 -142 -43 -32 37 -30 71 5 107 39 38 74 38 113 -1z
m3273 24 c17 -7 45 -54 45 -78 0 -8 -12 -28 -26 -45 -39 -47 -102 -42 -129 10
-21 40 -19 66 10 94 24 25 65 32 100 19z m206 -27 c27 -20 41 -56 34 -88 -18
-79 -142 -79 -160 0 -11 52 27 100 80 100 17 0 37 -5 46 -12z m-3666 -22 c52
-51 15 -135 -59 -135 -26 0 -40 7 -60 31 -30 35 -32 49 -11 89 17 32 27 38 73
39 22 1 41 -7 57 -24z m3888 -6 c19 -23 22 -70 7 -98 -16 -31 -65 -46 -100
-31 -48 20 -65 74 -39 121 23 43 99 47 132 8z m-4078 -14 c45 -44 26 -116 -38
-138 -22 -8 -66 8 -83 31 -38 49 4 132 66 132 19 0 40 -9 55 -25z m1875 9 c0
-8 13 -29 29 -45 24 -24 38 -29 76 -29 40 0 52 5 83 36 26 26 37 32 43 22 5
-7 9 -16 9 -20 0 -15 61 -38 100 -38 32 0 48 6 69 28 15 15 31 34 34 42 6 13
8 13 14 0 3 -8 19 -27 34 -42 44 -45 128 -37 172 16 16 20 18 20 28 3 27 -46
118 -61 163 -26 l26 21 31 -26 c35 -30 84 -34 130 -11 27 15 31 14 58 -6 36
-27 97 -29 134 -5 25 17 27 17 55 -4 36 -26 92 -29 128 -6 23 16 26 16 51 -4
35 -27 112 -28 144 -1 24 19 24 19 50 -5 38 -36 89 -42 135 -14 37 21 38 21
53 2 39 -48 113 -57 158 -18 l28 24 33 -29 c38 -34 102 -40 141 -12 21 14 25
14 35 1 27 -36 102 -52 142 -30 14 8 25 5 46 -13 15 -13 32 -25 38 -27 8 -2 8
-22 1 -68 -6 -36 -11 -111 -11 -166 0 -118 -8 -128 -66 -89 -42 29 -82 32
-124 10 -27 -14 -31 -13 -66 10 -47 32 -91 32 -138 0 -31 -21 -38 -22 -43 -10
-16 42 -107 58 -158 27 -29 -18 -30 -18 -48 4 -37 48 -131 52 -168 8 -10 -13
-16 -11 -39 11 -37 35 -95 42 -135 17 -29 -18 -30 -18 -64 5 -41 28 -75 29
-121 4 -35 -19 -35 -19 -58 3 -30 27 -113 30 -138 5 -15 -16 -19 -15 -51 7
-45 30 -101 32 -137 3 l-26 -21 -31 26 c-49 42 -141 28 -169 -24 -10 -19 -12
-18 -38 11 -21 24 -39 32 -74 36 -42 5 -49 2 -87 -32 l-42 -38 -31 32 c-51 52
-118 54 -170 4 l-28 -27 -29 28 c-20 19 -43 30 -74 33 -38 5 -48 1 -79 -26
-35 -31 -68 -41 -68 -21 0 17 -63 50 -95 50 -27 0 -54 -13 -106 -51 -12 -9
-21 -6 -44 15 -39 36 -111 37 -152 2 l-28 -25 -27 26 c-17 16 -42 27 -71 30
-38 5 -48 1 -79 -26 l-35 -30 -23 24 c-13 14 -38 27 -55 31 -37 7 -102 -17
-111 -40 -5 -14 -10 -13 -31 4 -38 30 -112 27 -147 -5 l-27 -25 -26 20 c-15
12 -41 20 -62 20 -38 0 -101 -32 -101 -51 0 -6 -11 -1 -25 10 -39 30 -79 35
-120 15 -20 -9 -40 -25 -46 -36 -10 -18 -11 -18 -40 7 -44 36 -98 34 -143 -5
-19 -18 -37 -26 -41 -21 -9 15 -69 29 -99 24 -15 -3 -39 -18 -53 -32 l-27 -27
-37 19 c-44 22 -84 17 -125 -15 -21 -17 -30 -19 -45 -10 -29 18 -90 14 -126
-8 -30 -18 -35 -18 -68 -5 l-35 15 0 160 0 160 28 11 c15 6 37 20 49 31 20 19
23 19 45 4 35 -25 91 -20 127 10 29 24 32 24 53 10 33 -24 89 -20 131 8 34 24
38 24 67 9 41 -20 95 -11 130 22 24 23 28 24 46 10 10 -8 38 -15 61 -15 33 0
50 6 75 29 l32 28 34 -23 c19 -13 46 -24 59 -24 28 0 74 22 93 45 12 14 14 14
31 -1 10 -9 40 -19 67 -22 41 -4 52 0 80 23 32 27 33 27 53 9 31 -28 110 -26
141 3 l24 23 43 -22 c36 -18 48 -19 80 -9 21 6 46 20 56 31 18 19 18 19 47 -5
21 -17 42 -25 69 -25 43 0 94 22 102 42 3 9 13 4 32 -14 60 -60 158 -40 191
40 1 1 17 -13 37 -33 30 -30 42 -35 82 -35 38 0 52 5 76 29 16 16 29 37 29 45
0 9 5 16 10 16 6 0 10 -7 10 -16z m2369 1 c83 -42 32 -170 -60 -150 -70 16
-82 128 -16 155 32 13 44 12 76 -5z m-4431 -25 c46 -43 36 -111 -20 -138 -52
-24 -118 23 -118 84 0 9 13 29 29 45 35 35 77 38 109 9z m4617 -15 c41 -40 33
-105 -17 -131 -33 -17 -62 -11 -95 19 -50 45 -12 137 57 137 19 0 40 -9 55
-25z m-4810 9 c19 -8 45 -55 45 -84 0 -31 -44 -70 -79 -70 -43 0 -60 9 -77 42
-36 70 34 141 111 112z m1540 -429 c65 -64 -12 -173 -93 -131 -34 17 -42 34
-42 81 0 67 87 99 135 50z m203 5 c30 -28 36 -62 18 -98 -17 -32 -34 -42 -75
-42 -61 0 -96 62 -67 118 9 17 21 32 28 35 30 12 75 6 96 -13z m187 10 c30
-11 54 -60 47 -96 -5 -30 -47 -64 -78 -64 -12 0 -36 12 -53 26 -41 34 -42 75
-2 115 32 31 45 34 86 19z m250 -15 c50 -49 17 -135 -53 -135 -48 0 -82 32
-82 79 0 74 83 109 135 56z m232 3 c30 -34 36 -63 19 -96 -17 -33 -34 -42 -77
-42 -40 0 -79 40 -79 80 0 69 92 107 137 58z m228 -3 c67 -67 -20 -171 -105
-125 -22 12 -42 64 -33 88 22 63 94 82 138 37z m233 5 c30 -28 36 -62 18 -98
-26 -50 -90 -59 -131 -17 -73 72 38 185 113 115z m212 10 c10 -5 23 -23 29
-40 28 -82 -73 -147 -134 -85 -50 49 -17 135 51 135 20 0 44 -4 54 -10z
m-1732 -36 c30 -34 28 -70 -7 -105 -39 -38 -74 -38 -113 1 -25 26 -29 36 -24
62 15 77 92 100 144 42z m1941 10 c28 -36 27 -79 -4 -109 -51 -52 -135 -17
-135 56 0 52 27 79 79 79 31 0 44 -6 60 -26z m166 10 c19 -8 45 -55 45 -84 0
-31 -44 -70 -79 -70 -43 0 -60 9 -76 41 -21 39 -19 53 11 88 26 31 60 39 99
25z m-2320 -10 c23 -9 47 -61 39 -87 -20 -67 -93 -89 -139 -42 -65 64 11 163
100 129z m2519 -15 c56 -44 21 -139 -53 -139 -74 0 -109 83 -56 135 30 31 73
32 109 4z m-2721 -1 c55 -29 63 -84 18 -129 -32 -31 -45 -34 -86 -19 -30 11
-54 60 -47 96 5 29 46 64 74 64 11 0 29 -5 41 -12z m2892 6 c19 -8 45 -55 45
-82 0 -11 -9 -31 -21 -46 -16 -20 -29 -26 -59 -26 -77 0 -113 71 -65 128 27
32 61 41 100 26z m211 -28 c56 -47 20 -146 -52 -146 -34 0 -84 51 -84 85 0 34
50 85 84 85 14 0 37 -11 52 -24z m-3297 4 c31 -16 46 -65 31 -100 -15 -36 -37
-50 -78 -50 -48 0 -77 30 -77 80 0 32 6 47 24 61 25 21 71 25 100 9z m3510
-34 c6 -7 14 -27 17 -44 5 -26 1 -36 -24 -62 -41 -41 -81 -41 -116 1 -29 34
-31 45 -16 84 19 50 105 63 139 21z m-3688 -5 c17 -18 29 -40 29 -56 0 -34
-50 -85 -83 -85 -32 0 -73 33 -81 65 -12 49 34 104 87 105 10 0 32 -13 48 -29z
m3884 -6 c75 -74 -35 -185 -112 -113 -50 47 -12 138 57 138 19 0 40 -9 55 -25z
m-4079 -19 c21 -18 28 -32 28 -60 0 -76 -90 -110 -140 -52 -32 37 -30 71 5
107 36 35 70 37 107 5z m4269 -1 c50 -49 17 -135 -53 -135 -50 0 -82 32 -82
81 0 71 85 105 135 54z m-4437 -31 c65 -73 -34 -175 -111 -114 -31 25 -41 63
-25 98 27 56 93 64 136 16z m4609 4 c33 -31 32 -90 -3 -117 -36 -28 -79 -27
-109 4 -31 30 -32 73 -4 109 27 34 82 36 116 4z m-4796 -17 c17 -18 29 -40 29
-56 0 -34 -50 -85 -84 -85 -72 0 -108 99 -52 146 37 32 71 30 107 -5z m-2214
-1115 c76 -13 175 -28 221 -31 46 -4 80 -11 75 -15 -4 -4 -35 -13 -68 -20 -73
-15 -259 -78 -338 -113 l-59 -27 6 38 c3 20 8 72 12 115 3 42 8 77 10 77 2 0
65 -11 141 -24z m9277 -13 c3 -21 8 -73 11 -115 l7 -76 -93 40 c-93 40 -314
108 -350 108 -10 0 -19 4 -19 8 0 4 51 14 113 21 61 7 155 21 207 30 52 10
100 19 107 20 6 0 14 -16 17 -36z m-3355 -8839 c134 -39 201 -171 156 -305
-20 -57 -96 -156 -162 -211 l-52 -43 77 -11 c166 -24 250 -113 260 -276 10
-177 -95 -355 -281 -476 -130 -84 -265 -122 -432 -122 -106 0 -105 -1 -85 72
10 34 14 37 58 43 157 20 244 59 325 144 140 146 140 389 0 447 -46 20 -130
17 -180 -5 l-42 -20 -21 36 c-11 20 -20 39 -18 43 2 4 49 42 105 84 56 42 120
98 142 124 98 113 116 236 46 302 -19 18 -40 25 -83 28 -91 6 -160 -35 -238
-142 -22 -31 -40 -30 -83 3 l-24 19 26 45 c64 108 181 202 283 226 62 14 166
12 223 -5z m-2459 -631 c0 -578 1 -631 18 -663 10 -21 30 -41 50 -49 28 -13
32 -19 32 -53 l0 -38 -252 2 -253 3 -3 35 c-2 32 0 36 38 52 25 10 44 26 50
43 11 30 14 534 3 812 l-6 181 -71 -62 c-73 -63 -129 -106 -140 -106 -3 0 -6
24 -6 54 0 51 2 55 39 81 56 38 218 209 265 278 l39 57 99 0 98 0 0 -627z
m990 581 c0 -29 -24 -122 -66 -252 -125 -395 -254 -839 -302 -1047 l-19 -80
-159 -3 c-87 -1 -164 0 -170 2 -10 4 -8 23 8 78 61 218 240 585 464 953 l74
120 -230 3 c-286 3 -299 -2 -316 -107 -6 -40 -7 -41 -47 -41 l-40 0 7 123 c3
67 9 161 13 210 l6 87 388 0 389 0 0 -46z m900 -2 c0 -27 -9 -75 -21 -108 -82
-239 -303 -989 -344 -1169 l-22 -100 -172 -3 -172 -2 7 27 c14 63 79 244 121
336 95 213 265 529 391 727 l42 65 -229 3 c-131 1 -240 -2 -254 -7 -34 -13
-57 -50 -64 -101 -6 -39 -6 -40 -46 -40 l-40 0 7 133 c3 72 9 167 13 210 l6
77 388 0 389 0 0 -48z"/>
<path d="M7404 18888 c10 -81 27 -164 37 -179 14 -23 26 0 48 86 36 146 36
145 8 145 -27 0 -37 -16 -38 -63 0 -27 -2 -29 -9 -12 -5 11 -9 32 -9 48 -1 21
-6 27 -22 27 -20 0 -21 -4 -15 -52z"/>
<path d="M7120 18596 c0 -21 7 -25 48 -33 l47 -9 -47 -8 c-39 -6 -48 -11 -48
-27 0 -17 5 -20 28 -15 15 3 61 10 102 17 143 22 141 39 -7 75 -121 30 -123
30 -123 0z"/>
<path d="M7715 18609 c-88 -16 -135 -31 -135 -44 0 -13 5 -15 115 -46 90 -24
95 -24 95 5 0 25 -19 35 -70 37 -29 1 -20 5 33 14 28 4 37 11 37 25 0 22 -2
22 -75 9z"/>
<path d="M7446 18413 c-11 -38 -56 -357 -56 -398 0 -3 10 -5 23 -3 19 3 23 11
28 56 9 73 16 74 24 3 6 -51 10 -61 26 -61 14 0 19 7 19 28 -1 40 -28 315 -36
357 -7 38 -19 46 -28 18z"/>
<path d="M7420 16416 c-5 -15 -10 -31 -10 -35 0 -4 -6 -15 -13 -25 -17 -23
-43 -12 -63 25 -8 16 -21 29 -29 29 -27 0 -16 -36 25 -79 l39 -43 46 26 47 25
28 -21 c37 -27 102 -28 138 -1 23 17 27 28 29 74 l2 54 -15 -40 c-22 -59 -36
-69 -28 -19 9 61 -11 64 -31 5 -19 -57 -29 -64 -73 -46 l-31 14 14 35 c21 49
2 46 -31 -4 -31 -47 -39 -47 -23 -1 15 43 -5 69 -21 27z"/>
<path d="M7415 16183 c-16 -8 -38 -22 -47 -31 -16 -13 -22 -13 -63 3 -26 9
-49 14 -53 10 -13 -12 49 -56 75 -53 23 3 25 0 27 -52 4 -66 20 -110 41 -110
19 0 19 2 -1 65 -20 62 -13 120 16 135 30 16 110 17 119 1 12 -18 21 -136 14
-172 -7 -36 -14 -41 -81 -54 -29 -6 -54 -15 -55 -20 -3 -13 56 -18 110 -10 40
6 45 11 69 57 25 49 25 52 10 92 -21 54 -20 61 7 74 22 10 22 11 -5 11 -23 1
-28 6 -28 26 0 18 -7 28 -26 35 -37 15 -95 11 -129 -7z"/>
<path d="M7313 15793 c-20 -8 -32 -69 -43 -219 -14 -198 -13 -254 4 -254 11 0
16 22 20 88 10 159 27 332 33 349 5 14 22 15 131 10 l125 -6 39 -37 c34 -34
38 -36 38 -17 0 12 -11 34 -24 50 -22 25 -32 28 -113 35 -105 8 -193 8 -210 1z"/>
<path d="M7414 15680 c-31 -12 -35 -30 -41 -181 -4 -97 -3 -138 6 -143 7 -5
11 0 11 13 0 18 6 21 50 21 61 0 67 18 8 22 -42 3 -43 4 -43 38 0 34 1 35 43
38 49 4 57 22 10 22 -38 0 -52 8 -62 34 -9 25 8 36 60 36 53 0 64 -13 64 -79
0 -31 4 -62 9 -69 12 -19 23 135 11 158 -11 20 -67 34 -104 24 -29 -7 -34 6
-11 30 11 10 31 15 60 14 47 -2 61 4 50 21 -7 13 -91 13 -121 1z"/>
<path d="M7616 15618 c-3 -18 -9 -96 -15 -172 -8 -116 -13 -144 -31 -168 l-21
-28 26 0 c31 0 32 -15 1 -35 -20 -14 -30 -14 -87 -1 -77 17 -189 27 -189 17 0
-17 60 -34 130 -36 41 -1 92 -6 113 -10 46 -9 95 9 106 39 5 12 8 82 9 157 0
96 5 152 17 193 11 39 14 61 7 68 -18 18 -29 -23 -42 -162 -7 -74 -17 -139
-23 -145 -6 -7 -8 1 -4 22 9 48 21 293 14 293 -3 0 -8 -15 -11 -32z"/>
<path d="M7336 15152 c21 -48 16 -82 -15 -117 -31 -36 -39 -59 -22 -69 14 -9
91 104 91 133 l0 26 75 -3 c51 -3 75 -1 75 7 0 18 -38 28 -128 34 -75 5 -83 4
-76 -11z"/>
<path d="M7502 15082 c-20 -6 -14 -24 29 -85 38 -54 67 -70 75 -42 5 16 -90
132 -104 127z"/>
<path d="M7355 14921 c-13 -25 -15 -47 -9 -100 l6 -69 27 14 c40 21 51 17 51
-16 0 -16 4 -30 9 -30 5 0 12 14 16 30 5 21 13 30 26 30 17 0 19 -8 21 -87 0
-49 0 -98 -1 -110 -1 -12 3 -24 8 -27 5 -4 12 47 15 122 4 70 8 148 11 173 5
65 -23 91 -104 97 -58 4 -60 4 -76 -27z m67 -36 c6 -29 2 -35 -24 -35 -12 0
-18 7 -18 23 0 43 35 53 42 12z m66 13 c19 -19 15 -48 -8 -48 -16 0 -20 7 -20
30 0 32 9 37 28 18z m-58 -78 c0 -16 -7 -20 -30 -20 -23 0 -30 4 -30 20 0 16
7 20 30 20 23 0 30 -4 30 -20z m70 0 c0 -13 -7 -20 -20 -20 -13 0 -20 7 -20
20 0 13 7 20 20 20 13 0 20 -7 20 -20z"/>
<path d="M7245 14910 c-3 -14 -4 -126 -3 -250 3 -192 5 -225 18 -225 22 0 28
451 6 480 -14 19 -15 19 -21 -5z"/>
<path d="M7587 14788 c-4 -66 -7 -163 -7 -215 0 -120 -10 -133 -105 -133 -36
0 -82 7 -105 16 -23 9 -43 14 -47 11 -11 -12 7 -37 32 -47 42 -16 195 -12 229
5 15 8 32 15 37 15 17 0 9 -27 -15 -50 -22 -19 -36 -23 -108 -24 -46 0 -103 3
-128 7 -39 7 -42 7 -25 -5 25 -16 302 -25 317 -10 6 6 6 16 -1 28 -16 27 -29
218 -27 372 2 118 0 134 -15 143 -10 5 -20 9 -22 9 -2 0 -7 -55 -10 -122z"/>
<path d="M7433 14263 c-91 -4 -109 -17 -37 -27 109 -15 225 -4 202 19 -8 8
-85 12 -165 8z"/>
<path d="M7256 14078 c-5 -146 -4 -174 9 -187 9 -9 18 -11 22 -6 5 6 7 90 5
188 -2 137 -6 177 -16 177 -10 0 -14 -41 -20 -172z"/>
<path d="M7452 14103 c57 -17 72 -40 63 -95 l-7 -40 -45 6 c-25 3 -49 8 -54
12 -19 11 -8 34 19 40 43 9 49 12 24 13 -35 1 -62 19 -62 41 0 11 -4 20 -10
20 -17 0 -22 -48 -14 -132 l9 -83 72 -3 c61 -2 72 0 67 12 -4 10 -23 16 -62
18 -49 3 -57 6 -57 23 0 29 56 32 101 6 19 -12 38 -21 41 -21 7 0 -5 179 -13
192 -3 4 -31 8 -62 7 l-57 -1 47 -15z"/>
<path d="M9565 14498 c-209 -129 -222 -142 -463 -430 -13 -15 -13 -18 -1 -18
8 0 66 59 129 130 88 100 148 156 253 237 159 123 172 136 82 81z"/>
<path d="M9425 14051 c-87 -29 -229 -112 -340 -196 -77 -58 -188 -126 -296
-180 -38 -20 -69 -37 -69 -39 0 -8 74 16 115 36 76 38 200 117 315 199 96 68
222 137 360 197 50 21 -7 10 -85 -17z"/>
<path d="M9142 13759 c-82 -26 -75 -34 13 -14 55 13 81 14 138 5 38 -6 72 -9
74 -6 8 8 -98 36 -131 35 -17 0 -60 -9 -94 -20z"/>
<path d="M8880 13500 c-47 -16 -49 -18 -15 -12 22 4 84 7 138 7 88 -1 95 1 65
11 -48 18 -125 15 -188 -6z"/>
<path d="M8405 13303 c-63 -17 -206 -65 -203 -68 1 -2 44 8 93 22 117 33 234
34 365 6 156 -35 160 -34 50 3 -83 29 -123 37 -195 40 -49 1 -99 0 -110 -3z"/>
<path d="M9964 13818 c-37 -57 -87 -129 -111 -160 -24 -32 -42 -58 -39 -58 17
0 155 178 187 243 22 42 37 77 35 77 -3 0 -35 -46 -72 -102z"/>
<path d="M9653 13730 c-7 -63 -23 -153 -37 -199 -14 -46 -24 -86 -22 -88 2 -2
20 35 40 82 36 84 37 87 34 202 l-3 118 -12 -115z"/>
<path d="M9361 13390 c-2 -51 -22 -99 -64 -146 l-42 -48 47 33 c27 19 55 43
65 53 18 20 20 69 4 109 l-10 24 0 -25z"/>
<path d="M9717 13385 c-67 -14 -241 -74 -234 -82 6 -5 119 23 242 62 114 35
110 43 -8 20z"/>
<path d="M9066 13208 c-22 -76 -47 -111 -117 -165 -34 -27 -55 -49 -48 -50 8
-1 68 -7 134 -12 101 -7 131 -13 190 -40 85 -37 56 -11 -34 32 -50 23 -82 32
-143 35 -43 3 -78 5 -78 7 0 1 19 22 41 46 23 24 47 58 54 74 14 32 29 125 21
125 -2 0 -12 -24 -20 -52z"/>
<path d="M9280 13108 c36 -5 88 -19 115 -30 50 -21 242 -42 257 -29 4 4 -33
12 -82 19 -50 7 -114 21 -143 32 -38 15 -74 20 -132 19 l-80 -2 65 -9z"/>
<path d="M8480 12998 c-62 -58 -63 -59 -22 -37 38 21 100 85 91 94 -2 1 -33
-24 -69 -57z"/>
<path d="M8682 12999 c-23 -17 -42 -32 -42 -34 0 -2 15 1 32 6 18 5 34 9 35 9
6 0 33 33 33 41 0 16 -14 10 -58 -22z"/>
<path d="M5394 11182 c-28 -10 -68 -32 -90 -49 -21 -18 -550 -544 -1176 -1170
-819 -821 -1142 -1151 -1159 -1183 -14 -29 -24 -70 -27 -116 -4 -62 -1 -79 22
-131 24 -53 73 -105 424 -456 437 -436 442 -440 557 -441 44 0 76 7 120 28 53
24 105 73 465 437 l405 409 100 -86 c460 -399 944 -850 1514 -1410 l324 -319
-489 -475 c-269 -261 -642 -624 -829 -805 -187 -182 -467 -454 -623 -605
l-283 -275 -82 -31 c-105 -38 -103 -37 -129 -87 -16 -30 -22 -59 -22 -102 1
-108 61 -207 245 -399 228 -240 365 -336 488 -343 55 -3 74 0 110 19 51 27 52
28 91 134 l31 81 711 744 c391 409 869 910 1062 1112 l351 368 45 -49 c25 -28
171 -187 325 -354 453 -491 1032 -1144 1526 -1719 191 -223 195 -228 224 -314
26 -77 35 -91 69 -114 34 -22 50 -26 115 -26 64 0 85 5 131 28 205 106 620
520 717 717 39 77 43 168 11 229 -26 51 -26 51 -136 92 -79 29 -95 42 -340
252 -785 675 -2074 1827 -2090 1869 -4 8 68 85 573 613 132 138 427 446 655
685 871 912 882 924 945 962 91 57 172 81 259 76 68 -3 78 -7 147 -52 213
-142 526 -512 887 -1049 134 -198 445 -691 454 -718 4 -13 168 50 175 68 3 7
-13 86 -36 175 -213 850 -624 1647 -1228 2383 -309 377 -735 800 -1183 1174
-193 162 -178 154 -340 166 l-85 7 -174 -175 -173 -174 16 -129 16 -129 359
-355 c198 -195 365 -366 372 -380 29 -59 7 -236 -41 -331 -11 -21 -229 -240
-517 -520 -274 -266 -583 -567 -688 -669 -179 -174 -747 -725 -953 -925 l-94
-90 -256 260 c-517 525 -945 982 -1347 1442 l-216 246 414 416 c388 389 416
419 432 470 33 100 20 196 -36 276 -15 22 -195 207 -401 412 -406 405 -415
412 -532 420 -42 2 -77 -2 -112 -15z m164 -97 c41 -17 792 -759 818 -808 25
-46 20 -130 -10 -180 -13 -23 -216 -233 -449 -466 l-425 -423 131 -152 c428
-494 844 -940 1439 -1541 l307 -311 -219 -219 -220 -219 -377 375 c-475 471
-769 750 -1198 1135 -181 162 -417 364 -427 364 -5 0 -205 -195 -444 -432
-239 -238 -442 -437 -451 -442 -36 -20 -94 -26 -141 -15 -44 11 -74 38 -431
393 -255 254 -389 394 -402 421 -25 53 -24 118 2 172 29 59 2296 2318 2354
2344 49 23 94 24 143 4z m3928 -65 c27 0 55 -18 156 -101 459 -376 956 -873
1279 -1279 458 -576 794 -1179 1010 -1809 77 -227 182 -609 160 -585 -5 5 -53
81 -106 169 -510 832 -958 1403 -1254 1597 -85 55 -131 70 -218 70 -80 -1
-157 -23 -257 -75 -92 -48 -102 -57 -407 -377 -542 -568 -1079 -1130 -1289
-1350 -124 -129 -412 -431 -640 -670 -228 -239 -566 -592 -750 -785 -354 -371
-715 -748 -1386 -1450 -534 -559 -489 -508 -525 -606 -17 -46 -36 -87 -42 -91
-28 -18 -96 -7 -153 22 -147 78 -460 395 -526 535 -52 111 -40 140 77 180 l87
30 247 240 c135 131 401 390 591 574 190 184 424 412 520 506 96 94 402 391
680 660 278 269 591 573 695 675 311 303 503 489 1040 1010 1108 1076 1281
1246 1302 1285 66 119 94 299 65 410 -13 47 -36 72 -375 408 l-361 358 -11 85
-11 85 140 146 140 145 44 -6 c25 -3 60 -6 78 -6z m-1185 -4700 c566 -523
1118 -1014 1802 -1602 294 -253 299 -257 385 -288 48 -17 90 -37 94 -43 16
-25 8 -98 -17 -147 -62 -121 -322 -404 -519 -562 -119 -96 -187 -131 -248
-126 -48 3 -58 17 -99 131 -18 49 -56 100 -242 315 -565 657 -1152 1313 -1665
1864 l-203 217 228 236 c125 129 231 234 234 233 4 -2 116 -104 250 -228z"/>
<path d="M6781 12509 c-68 -5 -126 -11 -129 -14 -3 -3 67 -5 155 -5 188 0 186
1 191 -99 6 -104 15 -100 -251 -113 -260 -13 -249 -15 -272 68 l-13 49 -1 -62
c-1 -51 3 -67 20 -84 19 -19 27 -20 187 -13 325 13 345 16 360 44 9 18 11 50
7 115 -9 134 -1 131 -254 114z"/>
<path d="M7415 12510 c-17 -3 33 -9 109 -13 105 -5 143 -10 155 -22 17 -16 22
-109 8 -157 l-7 -28 -239 0 c-263 0 -257 -1 -268 64 -8 53 -23 44 -23 -14 0
-37 5 -55 20 -70 19 -19 33 -20 274 -20 305 0 286 -9 286 137 0 95 -10 121
-48 124 -55 4 -243 3 -267 -1z"/>
<path d="M8180 12495 c85 -7 163 -14 172 -14 26 -1 41 -39 40 -103 -1 -101 5
-98 -200 -97 -97 1 -206 4 -242 8 l-65 6 -17 65 -17 65 0 -71 c-1 -108 -12
-104 291 -111 299 -7 279 -15 286 112 8 154 5 156 -237 154 l-166 -2 155 -12z"/>
<path d="M6608 12493 c7 -3 16 -2 19 1 4 3 -2 6 -13 5 -11 0 -14 -3 -6 -6z"/>
<path d="M6090 12470 c-72 -6 -70 -6 42 -8 108 -2 118 -4 132 -24 20 -28 22
-141 3 -157 -14 -11 -235 -31 -349 -31 -73 0 -74 1 -94 69 l-14 46 6 -65 c3
-36 12 -71 19 -79 12 -12 45 -12 222 -1 148 9 215 16 231 27 23 14 24 19 20
114 -2 75 -7 102 -18 109 -16 10 -79 10 -200 0z"/>
<path d="M8874 12450 c86 -12 142 -24 147 -32 20 -31 2 -161 -24 -170 -27 -10
-392 23 -406 37 -7 7 -16 35 -19 61 l-6 49 -7 -60 c-12 -101 -21 -97 275 -116
219 -14 210 -18 221 84 10 96 4 130 -25 143 -14 7 -86 14 -160 17 l-135 6 139
-19z"/>
<path d="M5978 12453 c6 -2 18 -2 25 0 6 3 1 5 -13 5 -14 0 -19 -2 -12 -5z"/>
<path d="M5455 12414 c-71 -12 -107 -21 -80 -19 28 3 91 7 140 11 l91 7 12
-27 c6 -15 15 -50 18 -80 5 -41 3 -56 -11 -69 -9 -9 -22 -17 -28 -17 -7 0 -93
-11 -192 -25 -200 -27 -194 -28 -220 40 l-15 40 6 -55 c11 -94 1 -92 282 -53
231 31 222 24 204 160 -6 48 -15 90 -19 94 -18 17 -65 16 -188 -7z"/>
<path d="M9504 12399 c70 -10 135 -24 143 -31 11 -9 14 -29 11 -80 -6 -104 0
-101 -214 -83 -98 9 -190 20 -204 24 -19 6 -27 18 -36 57 l-12 49 -1 -61 c-1
-40 4 -65 12 -72 7 -6 109 -20 227 -31 258 -23 244 -29 260 103 15 122 13 124
-146 136 -174 14 -186 10 -40 -11z"/>
</g>
</svg>
